<?xml version="1.0" encoding="iso-8859-1"?>
<!-- Generator: Adobe Illustrator 19.0.0, SVG Export Plug-In . SVG Version: 6.00 Build 0)  -->
<svg version="1.1" id="Capa_1" xmlns="http://www.w3.org/2000/svg" xmlns:xlink="http://www.w3.org/1999/xlink" x="0px" y="0px"
	 viewBox="0 0 512 512" style="enable-background:new 0 0 512 512;" xml:space="preserve">
<g>
	<g>
		<circle cx="394.667" cy="458.667" r="53.333"/>
	</g>
</g>
<g>
	<g>
		<circle cx="181.333" cy="458.667" r="53.333"/>
	</g>
</g>
<g>
	<g>
		<path d="M471.467,236.8c-2.133,0-6.4,0-10.667,2.133C441.6,249.6,418.133,256,394.667,256C317.867,256,256,194.133,256,117.333
			c0-6.4-4.267-10.667-10.667-10.667H96L85.333,51.2c-2.133-4.267-6.4-8.533-10.667-8.533h-64C4.267,42.667,0,46.933,0,53.333
			C0,59.733,4.267,64,10.667,64h55.467l51.2,260.267C125.867,358.4,155.733,384,192,384h245.333c6.4,0,10.667-4.267,10.667-10.667
			c0-6.4-4.267-10.667-10.667-10.667H192c-17.067,0-34.133-8.533-42.667-23.467L460.8,296.533c4.267,0,8.533-4.267,8.533-8.533
			l6.4-40.533C475.733,243.2,475.733,238.933,471.467,236.8z"/>
	</g>
</g>
<g>
	<g>
		<path d="M394.667,0c-64,0-117.333,53.333-117.333,117.333s53.333,117.333,117.333,117.333S512,181.333,512,117.333
			S458.667,0,394.667,0z M437.333,128h-32v32c0,6.4-4.267,10.667-10.667,10.667S384,166.4,384,160v-32h-32
			c-6.4,0-10.667-4.267-10.667-10.667c0-6.4,4.267-10.667,10.667-10.667h32v-32c0-6.4,4.267-10.667,10.667-10.667
			s10.667,4.267,10.667,10.667v32h32c6.4,0,10.667,4.267,10.667,10.667C448,123.733,443.733,128,437.333,128z"/>
	</g>
</g>
<g>
</g>
<g>
</g>
<g>
</g>
<g>
</g>
<g>
</g>
<g>
</g>
<g>
</g>
<g>
</g>
<g>
</g>
<g>
</g>
<g>
</g>
<g>
</g>
<g>
</g>
<g>
</g>
<g>
</g>
</svg>
