<svg id="Capa_1" enable-background="new 0 0 497 497" height="512" viewBox="0 0 497 497" width="512" xmlns="http://www.w3.org/2000/svg"><g><path d="m443.745 80.321c-7.935-2.863-16.256-4.43-23.466-1.405-8.047 3.376-14.71 9.982-17.906 18.838l-50.02 138.628 30.599-155.276c3.451-17.513-7.948-34.509-25.462-37.96-17.514-3.451-34.509 7.948-37.96 25.462l-33.027 167.602v-203.889c0-17.851-14.47-32.321-32.321-32.321-17.85 0-32.32 14.47-32.32 32.32v210.476l-39.06-174.603c-3.897-17.42-21.177-28.382-38.597-24.485-17.42 3.897-28.382 21.177-24.485 38.597l37.5 167.634 8.306 41.627c2.034 10.195-7.984 18.622-17.68 14.872l-70.53-27.279c-18.701-7.006-39.392 3.491-44.783 22.72-2.007 7.16.829 14.797 7.024 18.909l140.293 86.745v74.467c0 8.284 6.716 15 15 15h130.696l23-2c8.284 0 15-4.716 15-13v-48.07l33.251-23.376c10.65-7.487 16.988-19.691 16.989-32.71v-126.806l47.392-131.346c6.058-16.79-.642-33.312-17.433-39.371z" fill="#d88a55"/><g><path d="m443.745 78.321c-7.934-2.863-16.254-2.426-23.464.598 15.78 6.605 23.768 24.502 17.897 40.773l-46.501 128.878c-.589 1.633-.89 3.355-.89 5.091v124.182c0 13.018-6.339 25.222-16.989 32.71l-26.878 18.895c-3.995 2.809-6.373 7.387-6.373 12.271v40.281c0 8.284-6.716 15-15 15h25c8.284 0 15-6.716 15-15v-48.07l33.251-23.376c10.65-7.487 16.988-19.691 16.989-32.71v-126.805l47.392-131.346c6.057-16.791-2.643-35.313-19.434-41.372z" fill="#c57a44"/></g><path d="m242.528 348.339c1.476 1.942 3.713 2.963 5.978 2.963 1.581 0 3.175-.498 4.531-1.528 3.298-2.506 3.94-7.211 1.435-10.509-24.745-32.57-67.379-42.854-88.723-46.039.513 6.834-4.314 12.564-10.503 13.847 12.761 1.236 62.07 8.08 87.282 41.266z" fill="#c57a44"/></g></svg>